<svg xmlns="http://www.w3.org/2000/svg" xmlns:xlink="http://www.w3.org/1999/xlink" width="500" zoomAndPan="magnify" viewBox="0 0 375 374.999991" height="500" preserveAspectRatio="xMidYMid meet" version="1.0"><defs><g/><clipPath id="d29249228f"><path d="M 179 132.074219 L 210.113281 132.074219 L 210.113281 187.574219 L 179 187.574219 Z M 179 132.074219 " clip-rule="nonzero"/></clipPath><clipPath id="759fec8971"><path d="M 154 135 L 178 135 L 178 178 L 154 178 Z M 154 135 " clip-rule="nonzero"/></clipPath><clipPath id="f640368380"><path d="M 159.601562 135.445312 C 159.070312 138.109375 160.402344 140.859375 162.320312 142.777344 C 164.238281 144.695312 166.691406 145.972656 169.035156 147.34375 C 171.382812 148.714844 173.71875 150.273438 175.195312 152.558594 C 176.476562 154.542969 176.996094 156.917969 177.269531 159.269531 C 177.59375 162.109375 177.550781 165.101562 176.644531 167.78125 C 175.984375 166.167969 175.128906 164.621094 174.152344 163.175781 C 172.230469 160.335938 169.871094 157.824219 167.523438 155.332031 C 164.773438 152.417969 162.03125 149.503906 159.285156 146.589844 C 162.125 151.921875 166.53125 156.210938 170.257812 160.972656 C 173.984375 165.726562 177.160156 171.402344 176.808594 177.433594 C 176.535156 174.351562 174.027344 171.902344 171.316406 170.410156 C 168.601562 168.914062 165.554688 168.085938 162.871094 166.527344 C 157.808594 163.5625 154.402344 157.945312 154.136719 152.09375 C 153.871094 146.171875 156.574219 140.542969 159.601562 135.445312 Z M 159.601562 135.445312 " clip-rule="nonzero"/></clipPath><linearGradient x1="-1204.20996" gradientTransform="matrix(-0.0552853, 0, 0, 0.0552853, 99.211664, 132.073687)" y1="60.999763" x2="-1204.20996" gradientUnits="userSpaceOnUse" y2="820.499818" id="3badd14bf6"><stop stop-opacity="1" stop-color="rgb(95.159912%, 52.388%, 1.516724%)" offset="0"/><stop stop-opacity="1" stop-color="rgb(95.004272%, 52.432251%, 1.565552%)" offset="0.0625"/><stop stop-opacity="1" stop-color="rgb(94.694519%, 52.522278%, 1.663208%)" offset="0.125"/><stop stop-opacity="1" stop-color="rgb(94.38324%, 52.610779%, 1.760864%)" offset="0.1875"/><stop stop-opacity="1" stop-color="rgb(94.07196%, 52.700806%, 1.858521%)" offset="0.25"/><stop stop-opacity="1" stop-color="rgb(93.760681%, 52.789307%, 1.956177%)" offset="0.3125"/><stop stop-opacity="1" stop-color="rgb(93.449402%, 52.879333%, 2.053833%)" offset="0.375"/><stop stop-opacity="1" stop-color="rgb(93.139648%, 52.967834%, 2.151489%)" offset="0.4375"/><stop stop-opacity="1" stop-color="rgb(92.828369%, 53.057861%, 2.249146%)" offset="0.5"/><stop stop-opacity="1" stop-color="rgb(92.51709%, 53.146362%, 2.346802%)" offset="0.5625"/><stop stop-opacity="1" stop-color="rgb(92.205811%, 53.236389%, 2.444458%)" offset="0.625"/><stop stop-opacity="1" stop-color="rgb(91.894531%, 53.32489%, 2.542114%)" offset="0.6875"/><stop stop-opacity="1" stop-color="rgb(91.584778%, 53.414917%, 2.639771%)" offset="0.75"/><stop stop-opacity="1" stop-color="rgb(91.273499%, 53.503418%, 2.737427%)" offset="0.8125"/><stop stop-opacity="1" stop-color="rgb(90.962219%, 53.593445%, 2.835083%)" offset="0.875"/><stop stop-opacity="1" stop-color="rgb(90.65094%, 53.681946%, 2.932739%)" offset="0.9375"/><stop stop-opacity="1" stop-color="rgb(90.339661%, 53.771973%, 3.030396%)" offset="1"/></linearGradient></defs><rect x="-37.5" width="450" fill="#ffffff" y="-37.499999" height="449.999989" fill-opacity="1"/><rect x="-37.5" width="450" fill="#ffffff" y="-37.499999" height="449.999989" fill-opacity="1"/><g fill="#000000" fill-opacity="1"><g transform="translate(10.435141, 230.855171)"><g><path d="M 23.328125 -53.84375 C 26.191406 -53.84375 28.988281 -53.425781 31.71875 -52.59375 C 34.457031 -51.757812 36.488281 -50.9375 37.8125 -50.125 L 39.734375 -48.84375 L 34.859375 -39.21875 C 34.484375 -39.476562 33.953125 -39.8125 33.265625 -40.21875 C 32.578125 -40.625 31.289062 -41.164062 29.40625 -41.84375 C 27.53125 -42.53125 25.78125 -42.875 24.15625 -42.875 C 22.15625 -42.875 20.609375 -42.445312 19.515625 -41.59375 C 18.421875 -40.738281 17.875 -39.585938 17.875 -38.140625 C 17.875 -37.410156 18.128906 -36.734375 18.640625 -36.109375 C 19.160156 -35.492188 20.039062 -34.832031 21.28125 -34.125 C 22.519531 -33.425781 23.609375 -32.863281 24.546875 -32.4375 C 25.484375 -32.007812 26.9375 -31.367188 28.90625 -30.515625 C 32.320312 -29.054688 35.238281 -27.078125 37.65625 -24.578125 C 40.070312 -22.078125 41.28125 -19.25 41.28125 -16.09375 C 41.28125 -13.050781 40.734375 -10.398438 39.640625 -8.140625 C 38.546875 -5.878906 37.046875 -4.101562 35.140625 -2.8125 C 33.242188 -1.53125 31.140625 -0.582031 28.828125 0.03125 C 26.523438 0.65625 24.03125 0.96875 21.34375 0.96875 C 19.03125 0.96875 16.765625 0.726562 14.546875 0.25 C 12.328125 -0.21875 10.46875 -0.800781 8.96875 -1.5 C 7.476562 -2.207031 6.132812 -2.898438 4.9375 -3.578125 C 3.738281 -4.265625 2.863281 -4.84375 2.3125 -5.3125 L 1.46875 -6.03125 L 7.5 -16.15625 C 8.007812 -15.726562 8.710938 -15.179688 9.609375 -14.515625 C 10.503906 -13.859375 12.09375 -12.972656 14.375 -11.859375 C 16.664062 -10.742188 18.691406 -10.1875 20.453125 -10.1875 C 25.535156 -10.1875 28.078125 -11.914062 28.078125 -15.375 C 28.078125 -16.101562 27.894531 -16.773438 27.53125 -17.390625 C 27.164062 -18.015625 26.523438 -18.632812 25.609375 -19.25 C 24.691406 -19.875 23.878906 -20.367188 23.171875 -20.734375 C 22.460938 -21.097656 21.304688 -21.648438 19.703125 -22.390625 C 18.109375 -23.140625 16.925781 -23.707031 16.15625 -24.09375 C 12.945312 -25.675781 10.46875 -27.648438 8.71875 -30.015625 C 6.96875 -32.390625 6.09375 -34.945312 6.09375 -37.6875 C 6.09375 -42.425781 7.84375 -46.300781 11.34375 -49.3125 C 14.84375 -52.332031 18.835938 -53.84375 23.328125 -53.84375 Z M 23.328125 -53.84375 "/></g></g></g><g fill="#000000" fill-opacity="1"><g transform="translate(48.055093, 230.855171)"><g><path d="M 14.546875 -32.875 L 14.546875 -17.234375 C 14.546875 -13.992188 15.035156 -11.6875 16.015625 -10.3125 C 17.003906 -8.945312 18.671875 -8.265625 21.015625 -8.265625 C 23.367188 -8.265625 25.035156 -8.945312 26.015625 -10.3125 C 27.003906 -11.6875 27.5 -13.992188 27.5 -17.234375 L 27.5 -32.875 L 38.84375 -32.875 L 38.84375 -14.484375 C 38.84375 -9.015625 37.421875 -5.070312 34.578125 -2.65625 C 31.734375 -0.238281 27.210938 0.96875 21.015625 0.96875 C 14.828125 0.96875 10.3125 -0.238281 7.46875 -2.65625 C 4.625 -5.070312 3.203125 -9.015625 3.203125 -14.484375 L 3.203125 -32.875 Z M 14.546875 -32.875 "/></g></g></g><g fill="#000000" fill-opacity="1"><g transform="translate(84.649608, 230.855171)"><g><path d="M 37.6875 -28.8125 C 40.757812 -25.457031 42.296875 -21.34375 42.296875 -16.46875 C 42.296875 -11.601562 40.757812 -7.476562 37.6875 -4.09375 C 34.613281 -0.71875 30.703125 0.96875 25.953125 0.96875 C 21.597656 0.96875 18.007812 -0.398438 15.1875 -3.140625 L 15.1875 16.671875 L 3.84375 16.671875 L 3.84375 -32.875 L 15.0625 -32.875 L 15.0625 -29.15625 L 15.1875 -29.15625 C 18.007812 -32.28125 21.597656 -33.84375 25.953125 -33.84375 C 30.703125 -33.84375 34.613281 -32.164062 37.6875 -28.8125 Z M 28.03125 -10.890625 C 29.507812 -12.347656 30.25 -14.207031 30.25 -16.46875 C 30.25 -18.738281 29.539062 -20.585938 28.125 -22.015625 C 26.71875 -23.441406 24.863281 -24.15625 22.5625 -24.15625 C 20.34375 -24.15625 18.515625 -23.429688 17.078125 -21.984375 C 15.648438 -20.535156 14.9375 -18.695312 14.9375 -16.46875 C 14.9375 -14.207031 15.671875 -12.347656 17.140625 -10.890625 C 18.617188 -9.441406 20.425781 -8.71875 22.5625 -8.71875 C 24.738281 -8.71875 26.5625 -9.441406 28.03125 -10.890625 Z M 28.03125 -10.890625 "/></g></g></g><g fill="#000000" fill-opacity="1"><g transform="translate(122.974547, 230.855171)"><g><path d="M 37.109375 -14.875 L 13.265625 -14.875 C 13.265625 -12.5625 14.007812 -10.847656 15.5 -9.734375 C 17 -8.628906 18.625 -8.078125 20.375 -8.078125 C 22.21875 -8.078125 23.671875 -8.320312 24.734375 -8.8125 C 25.804688 -9.300781 27.023438 -10.273438 28.390625 -11.734375 L 36.59375 -7.625 C 33.175781 -1.894531 27.492188 0.96875 19.546875 0.96875 C 14.585938 0.96875 10.332031 -0.726562 6.78125 -4.125 C 3.238281 -7.53125 1.46875 -11.625 1.46875 -16.40625 C 1.46875 -21.195312 3.238281 -25.300781 6.78125 -28.71875 C 10.332031 -32.132812 14.585938 -33.84375 19.546875 -33.84375 C 24.765625 -33.84375 29.003906 -32.332031 32.265625 -29.3125 C 35.535156 -26.300781 37.171875 -22 37.171875 -16.40625 C 37.171875 -15.632812 37.148438 -15.125 37.109375 -14.875 Z M 13.59375 -21.15625 L 26.09375 -21.15625 C 25.832031 -22.863281 25.15625 -24.175781 24.0625 -25.09375 C 22.976562 -26.007812 21.582031 -26.46875 19.875 -26.46875 C 17.988281 -26.46875 16.488281 -25.972656 15.375 -24.984375 C 14.269531 -24.003906 13.675781 -22.726562 13.59375 -21.15625 Z M 13.59375 -21.15625 "/></g></g></g><g fill="#000000" fill-opacity="1"><g transform="translate(156.17231, 230.855171)"><g><path d="M 3.84375 0 L 3.84375 -32.875 L 15.1875 -32.875 L 15.1875 -28.140625 L 15.3125 -28.140625 C 15.40625 -28.304688 15.546875 -28.515625 15.734375 -28.765625 C 15.929688 -29.023438 16.347656 -29.472656 16.984375 -30.109375 C 17.628906 -30.753906 18.3125 -31.332031 19.03125 -31.84375 C 19.757812 -32.363281 20.703125 -32.828125 21.859375 -33.234375 C 23.015625 -33.640625 24.1875 -33.84375 25.375 -33.84375 C 26.613281 -33.84375 27.832031 -33.671875 29.03125 -33.328125 C 30.226562 -32.984375 31.101562 -32.640625 31.65625 -32.296875 L 32.5625 -31.796875 L 27.8125 -22.171875 C 26.40625 -23.367188 24.441406 -23.96875 21.921875 -23.96875 C 20.554688 -23.96875 19.378906 -23.664062 18.390625 -23.0625 C 17.410156 -22.46875 16.71875 -21.742188 16.3125 -20.890625 C 15.90625 -20.035156 15.613281 -19.304688 15.4375 -18.703125 C 15.269531 -18.109375 15.1875 -17.644531 15.1875 -17.3125 L 15.1875 0 Z M 3.84375 0 "/></g></g></g><g fill="#000000" fill-opacity="1"><g transform="translate(182.64065, 230.855171)"><g/></g></g><g fill="#000000" fill-opacity="1"><g transform="translate(194.688783, 230.855171)"><g><path d="M 34.421875 -52.875 L 34.421875 -42.296875 L 15.890625 -42.296875 L 15.890625 -31.796875 L 33.015625 -31.796875 L 33.015625 -21.21875 L 15.890625 -21.21875 L 15.890625 0 L 3.84375 0 L 3.84375 -52.875 Z M 34.421875 -52.875 "/></g></g></g><g fill="#000000" fill-opacity="1"><g transform="translate(225.579315, 230.855171)"><g><path d="M 3.84375 0 L 3.84375 -32.875 L 15.1875 -32.875 L 15.1875 -28.140625 L 15.3125 -28.140625 C 15.40625 -28.304688 15.546875 -28.515625 15.734375 -28.765625 C 15.929688 -29.023438 16.347656 -29.472656 16.984375 -30.109375 C 17.628906 -30.753906 18.3125 -31.332031 19.03125 -31.84375 C 19.757812 -32.363281 20.703125 -32.828125 21.859375 -33.234375 C 23.015625 -33.640625 24.1875 -33.84375 25.375 -33.84375 C 26.613281 -33.84375 27.832031 -33.671875 29.03125 -33.328125 C 30.226562 -32.984375 31.101562 -32.640625 31.65625 -32.296875 L 32.5625 -31.796875 L 27.8125 -22.171875 C 26.40625 -23.367188 24.441406 -23.96875 21.921875 -23.96875 C 20.554688 -23.96875 19.378906 -23.664062 18.390625 -23.0625 C 17.410156 -22.46875 16.71875 -21.742188 16.3125 -20.890625 C 15.90625 -20.035156 15.613281 -19.304688 15.4375 -18.703125 C 15.269531 -18.109375 15.1875 -17.644531 15.1875 -17.3125 L 15.1875 0 Z M 3.84375 0 "/></g></g></g><g fill="#000000" fill-opacity="1"><g transform="translate(252.047643, 230.855171)"><g><path d="M 37.109375 -14.875 L 13.265625 -14.875 C 13.265625 -12.5625 14.007812 -10.847656 15.5 -9.734375 C 17 -8.628906 18.625 -8.078125 20.375 -8.078125 C 22.21875 -8.078125 23.671875 -8.320312 24.734375 -8.8125 C 25.804688 -9.300781 27.023438 -10.273438 28.390625 -11.734375 L 36.59375 -7.625 C 33.175781 -1.894531 27.492188 0.96875 19.546875 0.96875 C 14.585938 0.96875 10.332031 -0.726562 6.78125 -4.125 C 3.238281 -7.53125 1.46875 -11.625 1.46875 -16.40625 C 1.46875 -21.195312 3.238281 -25.300781 6.78125 -28.71875 C 10.332031 -32.132812 14.585938 -33.84375 19.546875 -33.84375 C 24.765625 -33.84375 29.003906 -32.332031 32.265625 -29.3125 C 35.535156 -26.300781 37.171875 -22 37.171875 -16.40625 C 37.171875 -15.632812 37.148438 -15.125 37.109375 -14.875 Z M 13.59375 -21.15625 L 26.09375 -21.15625 C 25.832031 -22.863281 25.15625 -24.175781 24.0625 -25.09375 C 22.976562 -26.007812 21.582031 -26.46875 19.875 -26.46875 C 17.988281 -26.46875 16.488281 -25.972656 15.375 -24.984375 C 14.269531 -24.003906 13.675781 -22.726562 13.59375 -21.15625 Z M 13.59375 -21.15625 "/></g></g></g><g fill="#000000" fill-opacity="1"><g transform="translate(285.245395, 230.855171)"><g><path d="M 18.140625 -33.84375 C 20.015625 -33.84375 21.867188 -33.628906 23.703125 -33.203125 C 25.546875 -32.773438 26.914062 -32.347656 27.8125 -31.921875 L 29.15625 -31.28125 L 25.4375 -23.84375 C 22.875 -25.207031 20.441406 -25.890625 18.140625 -25.890625 C 16.859375 -25.890625 15.945312 -25.75 15.40625 -25.46875 C 14.875 -25.195312 14.609375 -24.675781 14.609375 -23.90625 C 14.609375 -23.738281 14.628906 -23.566406 14.671875 -23.390625 C 14.710938 -23.222656 14.796875 -23.0625 14.921875 -22.90625 C 15.054688 -22.757812 15.175781 -22.632812 15.28125 -22.53125 C 15.394531 -22.425781 15.578125 -22.304688 15.828125 -22.171875 C 16.085938 -22.046875 16.289062 -21.953125 16.4375 -21.890625 C 16.59375 -21.828125 16.835938 -21.726562 17.171875 -21.59375 C 17.515625 -21.46875 17.769531 -21.375 17.9375 -21.3125 C 18.113281 -21.25 18.40625 -21.148438 18.8125 -21.015625 C 19.21875 -20.890625 19.523438 -20.804688 19.734375 -20.765625 C 21.066406 -20.378906 22.222656 -19.953125 23.203125 -19.484375 C 24.179688 -19.015625 25.210938 -18.375 26.296875 -17.5625 C 27.390625 -16.75 28.234375 -15.722656 28.828125 -14.484375 C 29.429688 -13.242188 29.734375 -11.832031 29.734375 -10.25 C 29.734375 -2.769531 24.546875 0.96875 14.171875 0.96875 C 11.816406 0.96875 9.582031 0.601562 7.46875 -0.125 C 5.351562 -0.851562 3.828125 -1.582031 2.890625 -2.3125 L 1.46875 -3.46875 L 6.09375 -11.21875 C 6.4375 -10.914062 6.882812 -10.5625 7.4375 -10.15625 C 7.988281 -9.75 8.988281 -9.191406 10.4375 -8.484375 C 11.894531 -7.785156 13.160156 -7.4375 14.234375 -7.4375 C 16.578125 -7.4375 17.75 -8.226562 17.75 -9.8125 C 17.75 -10.53125 17.445312 -11.09375 16.84375 -11.5 C 16.25 -11.90625 15.238281 -12.363281 13.8125 -12.875 C 12.382812 -13.394531 11.265625 -13.867188 10.453125 -14.296875 C 8.398438 -15.359375 6.773438 -16.5625 5.578125 -17.90625 C 4.378906 -19.257812 3.78125 -21.046875 3.78125 -23.265625 C 3.78125 -26.597656 5.070312 -29.191406 7.65625 -31.046875 C 10.238281 -32.910156 13.734375 -33.84375 18.140625 -33.84375 Z M 18.140625 -33.84375 "/></g></g></g><g fill="#000000" fill-opacity="1"><g transform="translate(311.329179, 230.855171)"><g><path d="M 3.84375 0 L 3.84375 -55.125 L 15.1875 -55.125 L 15.1875 -29.421875 L 15.3125 -29.421875 C 18.257812 -32.367188 21.398438 -33.84375 24.734375 -33.84375 C 26.359375 -33.84375 27.972656 -33.628906 29.578125 -33.203125 C 31.179688 -32.773438 32.71875 -32.113281 34.1875 -31.21875 C 35.664062 -30.320312 36.863281 -29.050781 37.78125 -27.40625 C 38.695312 -25.757812 39.15625 -23.84375 39.15625 -21.65625 L 39.15625 0 L 27.8125 0 L 27.8125 -18.59375 C 27.8125 -20.300781 27.265625 -21.796875 26.171875 -23.078125 C 25.085938 -24.359375 23.671875 -25 21.921875 -25 C 20.210938 -25 18.660156 -24.332031 17.265625 -23 C 15.878906 -21.675781 15.1875 -20.207031 15.1875 -18.59375 L 15.1875 0 Z M 3.84375 0 "/></g></g></g><g fill="#000000" fill-opacity="1"><g transform="translate(348.251529, 230.855171)"><g/></g></g><g clip-path="url(#d29249228f)"><path fill="#36a03d" d="M 202.867188 132.074219 C 203.566406 135.589844 201.808594 139.214844 199.277344 141.75 C 196.746094 144.285156 193.507812 145.96875 190.414062 147.773438 C 187.320312 149.582031 184.230469 151.644531 182.289062 154.65625 C 180.597656 157.277344 179.90625 160.417969 179.550781 163.515625 C 179.109375 167.273438 179.171875 171.214844 180.363281 174.753906 C 181.234375 172.621094 182.367188 170.578125 183.652344 168.671875 C 186.1875 164.917969 189.304688 161.605469 192.40625 158.3125 C 196.03125 154.464844 199.652344 150.621094 203.28125 146.773438 C 199.527344 153.804688 193.710938 159.480469 188.796875 165.753906 C 183.882812 172.035156 179.691406 179.53125 180.148438 187.492188 C 180.515625 183.417969 183.820312 180.183594 187.40625 178.214844 C 190.996094 176.246094 195.015625 175.144531 198.546875 173.089844 C 205.230469 169.199219 209.726562 161.777344 210.074219 154.050781 C 210.429688 146.230469 206.863281 138.796875 202.867188 132.074219 Z M 202.867188 132.074219 " fill-opacity="1" fill-rule="nonzero"/></g><g clip-path="url(#759fec8971)"><g clip-path="url(#f640368380)"><path fill="url(#3badd14bf6)" d="M 177.59375 135.445312 L 177.59375 177.433594 L 153.871094 177.433594 L 153.871094 135.445312 Z M 177.59375 135.445312 " fill-rule="nonzero"/></g></g></svg>